<?xml version="1.0" encoding="UTF-8" standalone="no"?><!-- Generator: Gravit.io -->
<svg xmlns="http://www.w3.org/2000/svg"
     style="isolation:isolate" viewBox="0 0 16 16" width="16pt" height="16pt">
    <defs>
        <clipPath id="_clipPath_7oqrD08ELflWBBJ3zKlU3v9s74DnEIYa">
            <rect width="16" height="16"/>
        </clipPath>
    </defs>
    <g clip-path="url(#_clipPath_7oqrD08ELflWBBJ3zKlU3v9s74DnEIYa)">
        <path d=" M 1 1.5 L 11 1.5 L 16 5.429 L 16 5.429 L 16 12.208 C 16 12.369 15.833 12.5 15.628 12.5 L 0.372 12.5 C 0.167 12.5 0 12.369 0 12.208 L 0 2.286 L 1 1.5 L 1 1.5 Z "
              fill="rgb(167,169,171)"/>
        <path d=" M 11.113 1.717 L 11.361 7.261 C 11.372 7.506 11.601 7.696 11.873 7.684 L 18 7.41 L 11.113 1.717 L 11.113 1.717 Z "
              fill="rgb(179,179,179)"/>
        <path d=" M 11 1.5 L 11.648 7.016 C 11.677 7.26 11.899 7.436 12.143 7.407 L 17.659 6.759 L 11 1.5 L 11 1.5 Z "
              fill="rgb(144,144,145)"/>
    </g>
</svg>